<svg width="250" height="27" viewBox="0 0 250 27" fill="none" xmlns="http://www.w3.org/2000/svg">
<path d="M9.60473 26.216C7.73273 26.216 5.93273 25.916 4.20473 25.316C2.50073 24.692 1.18073 23.9 0.244734 22.94L1.28873 20.888C2.17673 21.752 3.36473 22.484 4.85273 23.084C6.36473 23.66 7.94873 23.948 9.60473 23.948C11.1887 23.948 12.4727 23.756 13.4567 23.372C14.4647 22.964 15.1967 22.424 15.6527 21.752C16.1327 21.08 16.3727 20.336 16.3727 19.52C16.3727 18.536 16.0847 17.744 15.5087 17.144C14.9567 16.544 14.2247 16.076 13.3127 15.74C12.4007 15.38 11.3927 15.068 10.2887 14.804C9.18473 14.54 8.08073 14.264 6.97673 13.976C5.87273 13.664 4.85273 13.256 3.91673 12.752C3.00473 12.248 2.26073 11.588 1.68473 10.772C1.13273 9.932 0.856734 8.84 0.856734 7.496C0.856734 6.248 1.18073 5.108 1.82873 4.076C2.50073 3.02 3.52073 2.18 4.88873 1.556C6.25673 0.907999 8.00873 0.583999 10.1447 0.583999C11.5607 0.583999 12.9647 0.787999 14.3567 1.196C15.7487 1.58 16.9487 2.12 17.9567 2.816L17.0567 4.94C15.9767 4.22 14.8247 3.692 13.6007 3.356C12.4007 3.02 11.2367 2.852 10.1087 2.852C8.59673 2.852 7.34873 3.056 6.36473 3.464C5.38073 3.872 4.64873 4.424 4.16873 5.12C3.71273 5.792 3.48473 6.56 3.48473 7.424C3.48473 8.408 3.76073 9.2 4.31273 9.8C4.88873 10.4 5.63273 10.868 6.54474 11.204C7.48073 11.54 8.50073 11.84 9.60473 12.104C10.7087 12.368 11.8007 12.656 12.8807 12.968C13.9847 13.28 14.9927 13.688 15.9047 14.192C16.8407 14.672 17.5847 15.32 18.1367 16.136C18.7127 16.952 19.0007 18.02 19.0007 19.34C19.0007 20.564 18.6647 21.704 17.9927 22.76C17.3207 23.792 16.2887 24.632 14.8967 25.28C13.5287 25.904 11.7647 26.216 9.60473 26.216ZM34.9572 26.216C31.7412 26.216 29.2092 25.292 27.3612 23.444C25.5132 21.596 24.5892 18.86 24.5892 15.236V0.799998H27.2532V15.128C27.2532 18.104 27.9252 20.3 29.2692 21.716C30.6132 23.132 32.5092 23.84 34.9572 23.84C37.4292 23.84 39.3372 23.132 40.6812 21.716C42.0252 20.3 42.6972 18.104 42.6972 15.128V0.799998H45.2892V15.236C45.2892 18.86 44.3652 21.596 42.5172 23.444C40.6932 25.292 38.1732 26.216 34.9572 26.216ZM53.3169 26V0.799998H64.1889C66.9969 0.799998 69.1689 1.364 70.7049 2.492C72.2649 3.62 73.0449 5.216 73.0449 7.28C73.0449 8.648 72.7209 9.8 72.0729 10.736C71.4489 11.672 70.5849 12.38 69.4809 12.86C68.4009 13.34 67.2129 13.58 65.9169 13.58L66.5289 12.716C68.1369 12.716 69.5169 12.968 70.6689 13.472C71.8449 13.952 72.7569 14.684 73.4049 15.668C74.0529 16.628 74.3769 17.828 74.3769 19.268C74.3769 21.404 73.5849 23.06 72.0009 24.236C70.4409 25.412 68.0769 26 64.9089 26H53.3169ZM55.9809 23.804H64.8729C67.0809 23.804 68.7729 23.432 69.9489 22.688C71.1249 21.92 71.7129 20.708 71.7129 19.052C71.7129 17.42 71.1249 16.232 69.9489 15.488C68.7729 14.72 67.0809 14.336 64.8729 14.336H55.6929V12.14H64.0089C66.0249 12.14 67.5849 11.756 68.6889 10.988C69.8169 10.22 70.3809 9.08 70.3809 7.568C70.3809 6.032 69.8169 4.892 68.6889 4.148C67.5849 3.38 66.0249 2.996 64.0089 2.996H55.9809V23.804ZM80.4575 26V0.799998H82.6535L94.1735 20.456H93.0215L104.434 0.799998H106.63V26H104.074V4.796H104.686L94.1735 22.796H92.9135L82.3295 4.796H83.0135V26H80.4575ZM114.84 26V0.799998H117.504V26H114.84ZM130.6 26V3.104H121.744V0.799998H142.12V3.104H133.264V26H130.6ZM155.797 26V0.799998H157.993L175.381 22.688H174.229V0.799998H176.857V26H174.661L157.309 4.112H158.461V26H155.797ZM196.099 26.216C194.203 26.216 192.439 25.904 190.807 25.28C189.199 24.632 187.795 23.732 186.595 22.58C185.419 21.404 184.495 20.048 183.823 18.512C183.175 16.952 182.851 15.248 182.851 13.4C182.851 11.552 183.175 9.86 183.823 8.324C184.495 6.764 185.419 5.408 186.595 4.256C187.795 3.08 189.199 2.18 190.807 1.556C192.415 0.907999 194.179 0.583999 196.099 0.583999C197.995 0.583999 199.747 0.907999 201.355 1.556C202.963 2.18 204.355 3.068 205.531 4.22C206.731 5.372 207.655 6.728 208.303 8.288C208.975 9.848 209.311 11.552 209.311 13.4C209.311 15.248 208.975 16.952 208.303 18.512C207.655 20.072 206.731 21.428 205.531 22.58C204.355 23.732 202.963 24.632 201.355 25.28C199.747 25.904 197.995 26.216 196.099 26.216ZM196.099 23.84C197.611 23.84 199.003 23.588 200.275 23.084C201.571 22.556 202.687 21.824 203.623 20.888C204.583 19.928 205.327 18.824 205.855 17.576C206.383 16.304 206.647 14.912 206.647 13.4C206.647 11.888 206.383 10.508 205.855 9.26C205.327 7.988 204.583 6.884 203.623 5.948C202.687 4.988 201.571 4.256 200.275 3.752C199.003 3.224 197.611 2.96 196.099 2.96C194.587 2.96 193.183 3.224 191.887 3.752C190.591 4.256 189.463 4.988 188.503 5.948C187.567 6.884 186.823 7.988 186.271 9.26C185.743 10.508 185.479 11.888 185.479 13.4C185.479 14.888 185.743 16.268 186.271 17.54C186.823 18.812 187.567 19.928 188.503 20.888C189.463 21.824 190.591 22.556 191.887 23.084C193.183 23.588 194.587 23.84 196.099 23.84ZM220.267 26L211.771 0.799998H214.507L222.463 24.524H221.095L229.303 0.799998H231.751L239.851 24.524H238.555L246.583 0.799998H249.139L240.643 26H237.835L230.095 3.5H230.815L223.039 26H220.267Z" fill="#7BFFE9"/>
</svg>
